<svg xmlns="http://www.w3.org/2000/svg" version="1.1" xmlns:xlink="http://www.w3.org/1999/xlink" xmlns:svgjs="http://svgjs.dev/svgjs" viewBox="0 0 800 800"><g fill="#ffedd6"><path d="M166 733H216C244 733 266 755 266 783H216C188 783 166 761 166 733Z " transform="matrix(-0.021383513495435734,0.24441467766963332,-0.24441467766963332,-0.021383513495435734,405.8851645885961,721.4151328528994)"></path><path d="M193 113H243C271 113 293 135 293 163H243C215 163 193 141 193 113Z " transform="matrix(0.03501664718212948,0.22108640918501152,-0.22108640918501152,0.03501664718212948,265.0008792022741,79.44370525690834)"></path><path d="M87 511H137C165 511 187 533 187 561H137C109 561 87 539 87 511Z " transform="matrix(-0.13137540007543877,0.2470811918173404,-0.2470811918173404,-0.13137540007543877,287.43394862442955,572.5670911614595)"></path><path d="M495 587H545C573 587 595 609 595 637H545C517 637 495 615 495 587Z " transform="matrix(-0.11649414541882507,0.2498225010495173,-0.2498225010495173,-0.11649414541882507,761.3806798955643,547.141153924334)"></path><path d="M479 721H529C557 721 579 743 579 771H529C501 771 479 749 479 721Z " transform="matrix(-0.09173502626186986,0.25203991322756425,-0.25203991322756425,-0.09173502626186986,765.5496041602921,681.1052154939734)"></path><path d="M421 526H471C499 526 521 548 521 576H471C443 576 421 554 421 526Z " transform="matrix(-0.025839355497995684,0.2458450454701514,-0.2458450454701514,-0.025839355497995684,618.6309564936092,449.4444684629543)"></path><path d="M595 732H645C673 732 695 754 695 782H645C617 782 595 760 595 732Z " transform="matrix(-0.24961181635606475,0.1950181243252278,-0.1950181243252278,-0.24961181635606475,953.6283416638591,820.1694547917691)"></path><path d="M526 260H576C604 260 626 282 626 310H576C548 310 526 288 526 260Z " transform="matrix(-0.16660549022580146,0.23793729877827138,-0.23793729877827138,-0.16660549022580146,739.7768925218691,195.43068061806912)"></path><path d="M181 233H231C259 233 281 255 281 283H231C203 283 181 261 181 233Z " transform="matrix(-0.004165722990200841,0.23865411027297906,-0.23865411027297906,-0.004165722990200841,293.535042461165,203.94565705841364)"></path><path d="M-5 127H45C73 127 95 149 95 177H45C17 177 -5 155 -5 127Z " transform="matrix(-0.33096061365593693,0.10753562205414333,-0.10753562205414333,-0.33096061365593693,76.23864216674696,197.46691028326592)"></path><path d="M704 224H754C782 224 804 246 804 274H754C726 274 704 252 704 224Z " transform="matrix(-0.3058498992278751,0.14262015025589278,-0.14262015025589278,-0.3058498992278751,1020.123241431535,217.62103161479774)"></path><path d="M-4 338H46C74 338 96 360 96 388H46C18 388 -4 366 -4 338Z " transform="matrix(-0.33408626654010554,0.10214042193528623,-0.10214042193528623,-0.33408626654010554,98.44494142335375,479.5748553450352)"></path><path d="M705 340H755C783 340 805 362 805 390H755C727 390 705 368 705 340Z " transform="matrix(-0.3058498992278751,0.14262015025589278,-0.14262015025589278,-0.3058498992278751,1037.9730287604466,368.9569997749754)"></path><path d="M268 394H318C346 394 368 416 368 444H318C290 444 268 422 268 394Z " transform="matrix(0.0489687852677376,0.21210711198020687,-0.21210711198020687,0.0489687852677376,391.3008062045662,331.0320173631122)"></path><path d="M529 362H579C607 362 629 384 629 412H579C551 412 529 390 529 362Z " transform="matrix(-0.16660549022580146,0.23793729877827138,-0.23793729877827138,-0.16660549022580146,767.5463134679301,313.710628724766)"></path><path d="M518 477H568C596 477 618 499 618 527H568C540 527 518 505 518 477Z " transform="matrix(-0.16660549022580146,0.23793729877827138,-0.23793729877827138,-0.16660549022580146,782.0764424349475,450.4875703872942)"></path><path d="M176 343H226C254 343 276 365 276 393H226C198 393 176 371 176 343Z " transform="matrix(-0.004165722990200841,0.23865411027297906,-0.23865411027297906,-0.004165722990200841,314.7661659762417,315.59715713870065)"></path><path d="M605 21H655C683 21 705 43 705 71H655C627 71 605 49 605 21Z " transform="matrix(-0.3331234211921716,0.10184605057092308,-0.10184605057092308,-0.3331234211921716,877.8807592071348,-5.385485749114721)"></path><path d="M264 729H314C342 729 364 751 364 779H314C286 779 264 757 264 729Z " transform="matrix(0.04549682652199751,0.21404573994110726,-0.21404573994110726,0.04549682652199751,461.10448438768765,652.4850304609062)"></path><path d="M343 243H393C421 243 443 265 443 293H393C365 293 343 271 343 243Z " transform="matrix(0.03865543152348345,0.2192258460286089,-0.2192258460286089,0.03865543152348345,436.5609421469382,171.48458686246312)"></path><path d="M76 619H126C154 619 176 641 176 669H126C98 669 76 647 76 619Z " transform="matrix(-0.16227304279839502,0.24057967949469797,-0.24057967949469797,-0.16227304279839502,301.3797169871833,718.1907999458344)"></path><path d="M705 720H755C783 720 805 742 805 770H755C727 770 705 748 705 720Z " transform="matrix(-0.3058498992278751,0.14262015025589278,-0.14262015025589278,-0.3058498992278751,1092.168685857686,865.1799614815681)"></path><path d="M498 171H548C576 171 598 193 598 221H548C520 221 498 199 498 171Z " transform="matrix(-0.11649414541882507,0.2498225010495173,-0.2498225010495173,-0.11649414541882507,660.8040018952215,81.93012192695421)"></path><path d="M561 99H611C639 99 661 121 661 149H611C583 149 561 127 561 99Z " transform="matrix(-0.2311832586586006,0.2081583410701577,-0.2081583410701577,-0.2311832586586006,778.0646053331045,25.481977679800124)"></path><path d="M74 726H124C152 726 174 748 174 776H124C96 776 74 754 74 726Z " transform="matrix(-0.16227304279839502,0.24057967949469797,-0.24057967949469797,-0.16227304279839502,324.79719660751914,843.0351748842522)"></path><path d="M489 17H539C567 17 589 39 589 67H539C511 67 489 45 489 17Z " transform="matrix(-0.1716675680607583,0.23628013701008244,-0.23628013701008244,-0.1716675680607583,641.4525849391722,-78.14495598988259)"></path><path d="M322 560H372C400 560 422 582 422 610H372C344 610 322 588 322 560Z " transform="matrix(0.04197735786938247,0.21595478500675436,-0.21595478500675436,0.04197735786938247,482.717972101541,480.10806562389865)"></path><path d="M606 533H656C684 533 706 555 706 583H656C628 583 606 561 606 533Z " transform="matrix(-0.26380092283498513,0.1847153947557347,-0.1847153947557347,-0.26380092283498513,932.1245956534501,584.0276159821598)"></path><path d="M265 184H315C343 184 365 206 365 234H315C287 234 265 212 265 184Z " transform="matrix(0.04549682652199751,0.21404573994110726,-0.21404573994110726,0.04549682652199751,345.4040592932622,132.06675517545375)"></path><path d="M405 183H455C483 183 505 205 505 233H455C427 233 405 211 405 183Z " transform="matrix(-0.008410303232415215,0.2408395735495676,-0.2408395735495676,-0.008410303232415215,508.921319269059,100.16733710728911)"></path><path d="M356 348H406C434 348 456 370 456 398H406C378 398 356 376 356 348Z " transform="matrix(0.027551553642572685,0.22438939749403725,-0.22438939749403725,0.027551553642572685,478.51131448639137,271.6211751087413)"></path><path d="M400 636H450C478 636 500 658 500 686H450C422 686 400 664 400 636Z " transform="matrix(-0.008410303232415215,0.2408395735495676,-0.2408395735495676,-0.008410303232415215,612.9795945708511,558.181402339321)"></path><path d="M85 89H135C163 89 185 111 185 139H135C107 139 85 117 85 89Z " transform="matrix(-0.0964134393898426,0.25116559664399757,-0.25116559664399757,-0.0964134393898426,176.64869233504447,91.08377654350238)"></path><path d="M172 646H222C250 646 272 668 272 696H222C194 696 172 674 172 646Z " transform="matrix(-0.004165722990200841,0.23865411027297906,-0.23865411027297906,-0.004165722990200841,383.06169849699353,620.8139876458234)"></path><path d="M-7 572H43C71 572 93 594 93 622H43C15 622 -7 600 -7 572Z " transform="matrix(-0.33408626654010554,0.10214042193528623,-0.10214042193528623,-0.33408626654010554,118.34354135659042,792.0574629812259)"></path><path d="M618 299H668C696 299 718 321 718 349H668C640 349 618 327 618 299Z " transform="matrix(-0.2769999583107055,0.1730887844285213,-0.1730887844285213,-0.2769999583107055,909.1167383063922,298.12467849441634)"></path><path d="M704 24H754C782 24 804 46 804 74H754C726 74 704 52 704 24Z " transform="matrix(-0.35121951097653503,0.06827015711881725,-0.06827015711881725,-0.35121951097653503,1022.1647489751296,14.73405757026201)"></path><path d="M709 564H759C787 564 809 586 809 614H759C731 614 709 592 709 564Z " transform="matrix(-0.3058498992278751,0.14262015025589278,-0.14262015025589278,-0.3058498992278751,1075.143342014678,660.8968966009958)"></path><path d="M172 448H222C250 448 272 470 272 498H222C194 498 172 476 172 448Z " transform="matrix(-0.004165722990200841,0.23865411027297906,-0.23865411027297906,-0.004165722990200841,335.8081846629437,421.98917449376364)"></path><path d="M250 23H300C328 23 350 45 350 73H300C272 73 250 51 250 23Z " transform="matrix(0.08167128390358497,0.18343670701942333,-0.18343670701942333,0.08167128390358497,284.3035767658568,-10.951233733199075)"></path><path d="M84 395H134C162 395 184 417 184 445H134C106 445 84 423 84 395Z " transform="matrix(-0.13137540007543877,0.2470811918173404,-0.2470811918173404,-0.13137540007543877,255.37840417339174,442.0687883281607)"></path><path d="M356 455H406C434 455 456 477 456 505H406C378 505 356 483 356 455Z " transform="matrix(0.027551553642572685,0.22438939749403725,-0.22438939749403725,0.027551553642572685,502.52098001825334,375.673158868986)"></path><path d="M321 109H371C399 109 421 131 421 159H371C343 159 321 137 321 109Z " transform="matrix(0.05543340310968666,0.20688027684179724,-0.20688027684179724,0.05543340310968666,378.1561645431071,49.819341274995196)"></path><path d="M135 16H185C213 16 235 38 235 66H185C157 66 135 44 135 16Z " transform="matrix(0.008164545743405357,0.23380199984810554,-0.23380199984810554,0.008164545743405357,193.07544103124235,-2.5881163473791347)"></path><path d="M559 643H609C637 643 659 665 659 693H609C581 693 559 671 559 643Z " transform="matrix(-0.211495224960427,0.2190097166684782,-0.2190097166684782,-0.211495224960427,884.0990827354435,675.9018928224621)"></path><path d="M433 91H483C511 91 533 113 533 141H483C455 141 433 119 433 91Z " transform="matrix(-0.02584891968694847,0.24593604264955723,-0.24593604264955723,-0.02584891968694847,524.0136091561446,0.21136608394989764)"></path><path d="M89 286H139C167 286 189 308 189 336H139C111 336 89 314 89 286Z " transform="matrix(-0.13137540007543877,0.2470811918173404,-0.2470811918173404,-0.13137540007543877,234.10343126567886,317.51346376085115)"></path><path d="M442 407H492C520 407 542 429 542 457H492C464 457 442 435 442 407Z " transform="matrix(-0.04844234985374992,0.24921428548314792,-0.24921428548314792,-0.04844234985374992,623.4942074567648,330.3136666791112)"></path><path d="M367 728H417C445 728 467 750 467 778H417C389 778 367 756 367 728Z " transform="matrix(0.020075486921966663,0.22946386552148038,-0.22946386552148038,0.020075486921966663,581.4148126912147,642.1967264253018)"></path><path d="M264 293H314C342 293 364 315 364 343H314C286 343 264 321 264 293Z " transform="matrix(0.04549682652199751,0.21404573994110726,-0.21404573994110726,0.04549682652199751,367.780541773365,236.32164682449712)"></path><path d="M-4 453H46C74 453 96 475 96 503H46C18 503 -4 481 -4 453Z " transform="matrix(-0.33408626654010554,0.10214042193528623,-0.10214042193528623,-0.33408626654010554,110.19108994591167,632.9947759971474)"></path><path d="M-1 230H49C77 230 99 252 99 280H49C21 280 -1 258 -1 230Z " transform="matrix(-0.33408626654010554,0.10214042193528623,-0.10214042193528623,-0.33408626654010554,91.41603465396315,335.1871172928979)"></path><path d="M605 191H655C683 191 705 213 705 241H655C627 241 605 219 605 191Z " transform="matrix(-0.26380092283498513,0.1847153947557347,-0.1847153947557347,-0.26380092283498513,867.6881297241539,151.99241576735056)"></path><path d="M98 181H148C176 181 198 203 198 231H148C120 231 98 209 98 181Z " transform="matrix(-0.13137540007543877,0.2470811918173404,-0.2470811918173404,-0.13137540007543877,218.34228472553707,196.49531602657402)"></path><path d="M689 119H739C767 119 789 141 789 169H739C711 169 689 147 689 119Z " transform="matrix(-0.30968205815884814,0.13787933561770568,-0.13787933561770568,-0.30968205815884814,987.7096653083383,86.70138735338963)"></path><path d="M-11 705H39C67 705 89 727 89 755H39C11 755 -11 733 -11 705Z " transform="matrix(-0.33408626654010554,0.10214042193528623,-0.10214042193528623,-0.33408626654010554,126.59187240782309,969.8994981188009)"></path><path d="M438 291H488C516 291 538 313 538 341H488C460 341 438 319 438 291Z " transform="matrix(-0.04844234985374992,0.24921428548314792,-0.24921428548314792,-0.04844234985374992,590.3915809413047,209.69121123800878)"></path><path d="M613 416H663C691 416 713 438 713 466H663C635 466 613 444 613 416Z " transform="matrix(-0.26380092283498513,0.1847153947557347,-0.1847153947557347,-0.26380092283498513,919.3595009268741,434.86990024717636)"></path><path d="M261 490H311C339 490 361 512 361 540H311C283 540 261 518 261 490Z " transform="matrix(0.04549682652199751,0.21404573994110726,-0.21404573994110726,0.04549682652199751,407.08404302132897,425.0009092194869)"></path><path d="M366 17H416C444 17 466 39 466 67H416C388 67 366 45 366 17Z " transform="matrix(0.04205582556820836,0.21635846632187306,-0.21635846632187306,0.04205582556820836,407.591832149144,-49.771466663763945)"></path><path d="M188 556H238C266 556 288 578 288 606H238C210 606 188 584 188 556Z " transform="matrix(0.012188690218055973,0.23257406409510117,-0.23257406409510117,0.012188690218055973,370.2246229673565,518.5657437286754)"></path><path d="M6 21H56C84 21 106 43 106 71H56C28 71 6 49 6 21Z " transform="matrix(-0.2891593431249592,0.16028364120630192,-0.16028364120630192,-0.2891593431249592,79.5659707104876,50.32544587619522)"></path><path d="M702 455H752C780 455 802 477 802 505H752C724 505 702 483 702 455Z " transform="matrix(-0.3058498992278751,0.14262015025589278,-0.14262015025589278,-0.3058498992278751,1050.4567963421905,519.5575986369488)"></path><path d="M279 639H329C357 639 379 661 379 689H329C301 689 279 667 279 639Z " transform="matrix(0.0489687852677376,0.21210711198020687,-0.21210711198020687,0.0489687852677376,453.7283920017717,561.7014867407341)"></path><path d="M660 637H710C738 637 760 659 760 687H710C682 687 660 665 660 637Z " transform="matrix(-0.2971509111281778,0.1514059515602639,-0.1514059515602639,-0.2971509111281778,1021.207886833901,751.2156775590663)"></path></g></svg>